# xmcd
#
# Track frame offsets: 
#        183
#        16430
#        43078
#
# Disc length: 790 seconds
#
# Revision: 2
# Processed by: cddbd v1.5.2PL0 Copyright (c) Steve Scherf et al.
# Submitted via: ExactAudioCopy v1.3
#
DISCID=1e031403
DTITLE=Skin Up - Accelerate
DYEAR=1992
DGENRE=Electronic
TTITLE0=Accelerate (Rat Race Edit)
TTITLE1=Accelerate (Rat Race Mix)
TTITLE2=Horny (Skin's Up Re-Touch)
EXTD=YEAR: 1995
EXTT0=
EXTT1=
EXTT2=
PLAYORDER=
